# xmcd CD database file
#
# Track frame offsets:
#	150
#	21865
#	50483
#	72199
#	92854
#	112389
#	132274
#	149103
#	165287
#	191467
#	216028
#	235924
#	258740
#	275139
#	297773
#	314571
#
# Disc length: 4474 seconds
#
# Revision: 0
# Processed by: cddbd v1.5.2PL0 Copyright (c) Steve Scherf et al.
# Submitted via: CDex 1.70beta2
#
DISCID=03117810
DTITLE=New Orleans Feetwarmers - Hering and Jazz
DYEAR=1998
DGENRE=Jazz
TTITLE0=At A Georgia Campmeeting
TTITLE1=Tell Me Your Dreams
TTITLE2=Everybody Loves My Baby
TTITLE3=Canal Street Blues
TTITLE4=Muskrat Ramble
TTITLE5=Savoy Blues
TTITLE6=Skit Dat-De-Dat
TTITLE7=Tight Like That
TTITLE8=Dr. Jazz
TTITLE9=St. James Infirmary
TTITLE10=Weary Blues
TTITLE11=Honeysuckle Rose
TTITLE12=Second Line
TTITLE13=Tiger Rag
TTITLE14=Strutting With Some Barbecue
TTITLE15=Royal Garden Blues
EXTD=YEAR: 1998
EXTT0=
EXTT1=
EXTT2=
EXTT3=
EXTT4=
EXTT5=
EXTT6=
EXTT7=
EXTT8=
EXTT9=
EXTT10=
EXTT11=
EXTT12=
EXTT13=
EXTT14=
EXTT15=
PLAYORDER=
